<svg width="676" height="166" viewBox="0 0 676 166" fill="none" xmlns="http://www.w3.org/2000/svg">
<path d="M130.794 26.2496C130.339 24.5617 129.684 22.8997 128.927 21.2342C128.113 19.5363 127.063 17.9022 125.813 16.36C124.135 14.3115 122.576 12.6988 120.887 11.6209C120.654 11.6059 119.829 11.0465 118.943 10.6019C114.657 7.86347 109.982 5.71431 106.146 5.07816C104.827 4.78438 102.424 3.82554 100.18 3.11563C99.0647 2.73314 97.9916 2.45555 97.1646 2.23353C96.3351 2.0439 95.7472 1.9532 95.5955 2.02397C94.4831 2.54525 94.3429 2.65041 93.6628 2.5318C93.3239 2.48421 92.8525 2.35638 92.0601 2.28188C91.2677 2.19367 90.1544 2.10695 88.5379 2.14582C87.749 2.13361 85.2588 2.81785 83.7141 2.94742C82.4055 3.04884 81.3237 3.15027 80.3608 3.33566C79.8769 3.42137 79.4212 3.50833 78.9769 3.60152C78.5357 3.7144 78.1049 3.82504 77.6681 3.93742C75.9262 4.40612 74.6006 4.80182 71.7732 5.83716L71.8205 5.87354C72.3856 6.1885 72.8418 6.45238 73.0061 6.46758C73.9551 7.10822 74.8125 7.90559 75.648 8.82482L75.6883 8.8557C79.4404 7.76231 82.1331 7.42567 85.9655 7.10224C92.6147 6.58743 99.3488 7.08779 105.938 8.86194C107.578 9.31869 109.22 9.8295 110.819 10.4744C111.632 10.7714 112.411 11.1439 113.21 11.4888C113.984 11.8763 114.778 12.2443 115.532 12.6838C118.588 14.3683 121.457 16.5695 123.639 19.4244C125.832 22.2578 127.037 25.9402 127.591 29.6868C128.168 33.4524 127.972 37.3658 127.416 41.2106C126.857 45.0649 125.832 48.8609 124.592 52.5607C123.339 56.2595 121.849 59.8674 120.174 63.3521C116.83 70.3252 112.887 76.8776 108.588 82.8252C107.512 84.3093 106.412 85.7571 105.274 87.1323C104.688 87.7943 104.106 88.4529 103.526 89.1083C102.908 89.7315 102.291 90.3519 101.679 90.9691C99.159 93.3832 96.4531 95.5513 93.8593 97.7907C91.261 100.022 88.7805 102.348 86.6257 104.86C84.4696 107.364 82.5875 110.013 81.1529 112.755C80.3608 114.092 79.7972 115.496 79.1732 116.841C78.8422 117.509 78.6358 118.207 78.3753 118.881C78.1273 119.558 77.8825 120.228 77.6412 120.89C77.2213 122.228 76.869 123.549 76.4952 124.828C76.1595 126.034 75.832 127.206 75.5155 128.343C74.1581 132.836 72.536 136.627 71.0742 139.687C70.0407 141.881 69.0526 143.682 68.2266 145.122C68.1581 145.752 68.0852 146.381 68 147C69.0506 145.389 70.1892 143.464 71.2996 141.26C73.4484 137.031 75.5155 131.819 76.9486 126.287C77.3416 124.862 77.7366 123.429 78.1315 121.997C78.3078 121.269 78.5974 120.571 78.84 119.863C79.0912 119.157 79.3418 118.454 79.592 117.753C80.7602 115.012 82.0173 112.348 83.5854 110.025C85.07 107.65 86.7973 105.617 88.4246 103.829C90.0948 102.077 91.6918 100.576 93.1172 99.3635C95.2745 97.4445 97.2353 95.8573 98.9098 94.4188C99.7517 93.7049 100.529 93.0351 101.231 92.3932C101.586 92.0752 101.927 91.7695 102.255 91.475C102.571 91.1702 102.875 90.8772 103.167 90.5959C104.145 89.6405 103.544 90.3093 101.764 91.9923C101.308 92.4034 100.781 92.8783 100.19 93.4113C99.5821 93.9284 98.9088 94.5017 98.1791 95.1234C96.7054 96.3589 94.9725 97.753 93.1172 99.3635C91.4675 100.807 89.731 102.482 87.9567 104.427C86.1926 106.387 84.4687 108.685 82.8512 111.331C84.9647 108.084 87.5135 105.281 90.0331 102.964C92.5584 100.643 95.0332 98.7577 97.0984 97.1809C99.9773 94.6926 102.917 92.1714 105.524 89.2067C106.981 87.5955 108.26 85.8654 109.535 84.1411C110.8 82.4096 112.008 80.6459 113.172 78.8598C115.508 75.2935 117.652 71.6256 119.645 67.8832C123.581 60.3804 126.941 52.5281 128.872 44.1078C129.553 41.0656 130.395 36.09 130.031 31.0625C129.856 28.5593 129.438 26.061 128.76 23.8727C128.605 23.323 128.389 22.807 128.215 22.2972C128.123 22.0433 128.034 21.7946 127.946 21.5504C127.846 21.3082 127.733 21.0747 127.631 20.844C127.423 20.383 127.228 19.9404 126.996 19.55C126.771 19.1563 126.584 18.7678 126.367 18.4369C126.367 18.4369 126.411 18.5009 126.496 18.625C126.572 18.7548 126.685 18.9482 126.832 19.1999C126.974 19.454 127.167 19.757 127.362 20.1335C127.543 20.516 127.752 20.9556 127.987 21.4485C128.808 23.4274 129.747 26.3732 130.111 29.9983C130.5 33.6174 130.261 37.8566 129.491 42.2679C128.675 46.6736 127.344 51.258 125.64 55.6817C122.266 64.5554 117.599 72.8184 113.76 78.7629C111.84 81.7388 110.127 84.1461 108.885 85.8032C107.643 87.4589 106.886 88.3762 106.886 88.3762C107.33 87.8504 107.771 87.3284 108.206 86.8126C108.206 86.8126 109.756 84.8595 111.889 81.8006C112.947 80.2664 114.154 78.4566 115.396 76.4856C116.632 74.5096 117.9 72.3714 119.116 70.2006C120.33 68.029 121.468 65.8133 122.497 63.7159C123.504 61.6069 124.416 59.6224 125.121 57.8849C125.491 57.0242 125.799 56.2214 126.073 55.5097C126.355 54.8013 126.587 54.1784 126.766 53.6601C127.134 52.627 127.344 52.0367 127.344 52.0367C128.029 49.8708 128.716 47.6765 129.278 45.3657C129.278 45.3657 129.173 45.788 129.015 46.4222C128.868 47.0588 128.621 47.8921 128.382 48.7266C128.153 49.5656 127.875 50.3871 127.677 51.0063C127.477 51.6245 127.344 52.0367 127.344 52.0367C125.458 57.6694 123.258 63.0035 120.301 68.7259C118.428 72.2344 116.008 76.077 113.825 79.3945C112.035 82.0976 110.183 84.4436 108.206 86.8126C108.206 86.8126 107.976 87.1054 107.631 87.5444C107.276 87.9772 106.819 88.5638 106.309 89.12C105.809 89.6811 105.317 90.2498 104.936 90.6624C104.541 91.0613 104.277 91.327 104.277 91.327C103.883 91.7553 103.469 92.226 103.018 92.6758C103.036 92.6628 103.068 92.6374 103.083 92.6302C103.344 92.4567 103.718 92.1398 104.211 91.7184C104.701 91.2938 105.313 90.7685 105.963 90.0781C107.333 88.7427 108.888 86.9065 110.599 84.7222C114.016 80.3534 117.956 74.541 121.398 68.2762C124.86 62.0263 127.785 55.3049 129.546 49.4594C131.356 43.6291 131.898 38.6954 131.971 36.5116C132.114 33.0241 131.731 29.6193 130.794 26.2496Z" fill="#63676A"/>
<path d="M105.559 22.388C105.204 22.7855 104.738 23.0944 104.869 23.2187C105.387 23.6336 105.43 23.7382 105.286 23.8872C105.132 24.0478 104.801 24.2739 104.222 25.1445C104.074 25.3406 103.997 26.3534 103.596 26.7761C102.891 27.4358 102.493 27.9234 102.094 28.4788C101.693 29.0315 101.291 29.6518 100.492 30.5054C99.3764 31.7952 98.4593 32.394 97.6368 32.9996C96.7899 33.5925 96.032 34.2041 94.9731 35.4547C94.9677 35.4619 94.9499 35.4794 94.9387 35.4906C94.9318 35.4467 94.9229 35.4025 94.9152 35.3586C94.8116 34.6866 94.7268 34.0179 94.7236 33.4535C94.7068 33.1533 94.7414 32.9295 94.7547 32.7C94.7891 32.3217 94.8237 31.9459 94.8584 31.5736C94.9711 30.1551 95.0802 28.796 95.1771 27.5673C95.2839 26.3804 95.4066 25.3603 95.5337 24.5631C95.6598 23.7639 95.7867 23.1915 95.847 22.8402C96.0609 21.7385 96.2283 20.7776 96.5846 20.0608C96.7619 19.6992 96.9837 19.3881 97.3171 19.137C97.6457 18.8835 98.1081 18.7086 98.6744 18.6645C99.4412 18.6001 100.126 18.9092 100.809 18.8795C100.898 18.784 101.268 18.795 101.642 18.8014C102.554 19.0205 103.4 19.41 104.084 19.82C104.772 20.2294 105.28 20.6561 105.708 20.9099C105.769 20.9678 105.82 21.0616 105.861 21.1706C105.895 21.2849 105.899 21.4289 105.898 21.5671C105.862 21.8633 105.744 22.1647 105.559 22.388ZM94.0268 36.3469C93.8297 35.4794 93.6625 34.6208 93.5856 33.8443C93.572 33.6302 93.5601 33.4196 93.5478 33.2135C93.552 33.0216 93.5567 32.8339 93.5609 32.651C93.5901 32.1957 93.618 31.765 93.6435 31.3673C93.7283 29.8053 93.7839 28.764 93.7839 28.764C93.8153 27.9429 93.8732 27.1209 93.9724 26.296C93.9456 26.562 93.9088 26.9518 93.8789 27.3502C93.8319 28.0571 93.7839 28.764 93.7839 28.764C93.7394 29.9859 93.7483 31.2048 93.7204 32.4859C93.6904 33.5024 93.9466 34.6337 94.2577 35.8836C94.273 35.9507 94.2901 36.0248 94.3054 36.0934C94.2186 36.1733 94.1252 36.2581 94.0268 36.3469ZM93.4941 36.8238C93.4207 36.5298 93.346 36.2352 93.278 35.9405C93.0908 35.0854 92.9246 34.222 92.888 33.3849C92.8544 32.5972 92.9615 31.644 92.9894 30.7612C93.0772 28.9719 93.1598 27.1913 93.387 25.4432C93.5643 24.1931 93.8252 22.14 94.6477 20.4712C95.0512 19.6406 95.6027 18.9512 96.2201 18.5539C96.8265 18.1405 97.4773 17.987 97.9902 17.9588C97.9902 17.9588 97.8908 17.9748 97.707 18.0055C97.5344 18.0599 97.2656 18.111 96.9647 18.2512C96.3519 18.5003 95.575 19.0794 94.962 20.2052C94.348 21.3271 93.9422 22.9235 93.7181 24.6969C93.4884 26.4747 93.4207 28.4322 93.3549 30.4171C93.3358 30.9164 93.3171 31.4157 93.297 31.9127L93.2614 32.659C93.2656 32.8716 93.2513 33.0757 93.2656 33.2938C93.3104 34.1654 93.4941 35.0801 93.6981 35.9567C93.7429 36.1463 93.7928 36.3297 93.8396 36.5164C93.7283 36.6164 93.6133 36.7187 93.4941 36.8238ZM109.818 21.0099C109.562 19.947 108.969 18.9459 108.215 18.1826C106.709 16.692 105.005 16.0555 103.36 15.5896C102.944 15.4683 102.528 15.3773 102.112 15.2947C101.707 15.2009 101.247 15.1397 100.798 15.0766C99.8814 14.98 98.9153 14.9523 97.9009 15.1278C96.8846 15.3019 95.8257 15.7074 94.9518 16.3736C94.0727 17.0331 93.414 17.9014 92.9558 18.7842C92.0475 20.57 91.7656 22.3845 91.5737 24.1289C91.3977 25.8793 91.3766 27.5915 91.3522 29.274C91.3376 30.1067 91.3245 30.9371 91.3109 31.7655C91.2997 32.176 91.2753 32.5572 91.2874 33.0672C91.2819 33.3123 91.3131 33.5334 91.3321 33.7617C91.3499 33.9905 91.3744 34.2153 91.4135 34.4301C91.6027 35.6668 91.8915 36.8245 92.2035 37.9536C91.4958 38.5659 90.9221 39.0393 90.9221 39.0393C89.3828 40.0279 88.1815 40.9461 87.0235 41.7333C87.0346 42.7601 87.0312 43.8323 87.0067 44.9469C87.0057 45.007 87.0022 45.0712 87 45.1313C87.73 44.6422 88.4409 44.1494 89.161 43.6856C89.9244 43.1885 90.6877 42.7037 91.437 42.1882C91.9963 41.8047 92.5403 41.4319 93.0572 41.0771C93.0752 41.0649 93.0918 41.0529 93.1086 41.0404C93.4029 42.0128 93.6939 42.9794 93.9813 43.9331C94.8895 46.9278 95.7021 49.8213 96.3418 52.5822C97.6269 58.1033 98.1695 63.0865 98.1005 66.991C98.0471 70.903 97.5055 73.7096 97.1986 75.1825C97.1986 75.1825 97.2145 75.2973 97.2187 75.465C97.2268 75.6346 97.2379 75.8607 97.2478 76.0863C97.2691 76.5434 97.2901 77 97.2901 77C97.7226 76.0858 98.2441 74.5507 98.5406 72.6092C98.8581 70.6737 98.9988 68.3509 98.9217 65.9532C98.798 61.147 97.7617 56.1062 97.1487 53.0473C96.5982 50.7003 96.1769 48.91 95.8613 47.5649C95.5906 46.4263 96.3507 49.0258 97.1487 53.0473C97.5532 54.8299 98.008 56.9378 98.3957 59.4288C98.2577 56.2591 97.8831 53.1883 97.6257 50.9771C97.2021 49.4205 96.7543 47.8533 96.2859 46.2631C95.683 44.1906 95.0176 42.152 94.4093 40.1199C94.5329 40.0329 94.6588 39.9435 94.7815 39.8564C94.8794 40.1723 94.9753 40.4845 95.0666 40.7807C95.9627 43.6177 96.5589 45.5086 96.5589 45.5086C96.4956 45.2269 96.4321 44.9464 96.3697 44.6689C96.3697 44.6689 96.072 43.6689 95.6262 42.1685C95.4167 41.4589 95.1714 40.6362 94.9207 39.7586C94.9954 39.705 95.0725 39.6506 95.1472 39.5977C95.2617 40.0274 95.3811 40.4496 95.5048 40.8545C95.8861 42.1505 96.0953 43.3989 96.3697 44.6689L97.0661 47.0701C97.1576 47.2961 97.2523 47.5397 97.3371 47.7937C97.3371 47.7837 97.3359 47.7662 97.3381 47.7582C97.396 47.1983 97.1118 45.4928 96.6113 43.22C96.3561 42.0168 96.0221 40.6384 95.6952 39.2029C97.4954 37.9164 99.2194 36.6529 100.873 35.3541C101.179 35.1123 101.483 34.8715 101.786 34.6315C102.088 34.3745 102.388 34.1187 102.688 33.8635C103.289 33.354 103.841 32.8315 104.399 32.2917C105.504 31.2146 106.556 30.074 107.513 28.786C108.451 27.4857 109.353 26.053 109.81 24.1639C110.031 23.2377 110.09 22.0714 109.818 21.0099Z" fill="#63676A"/>
<path d="M60.6572 166C61.0183 165.511 61.4254 164.939 61.876 164.292C62.3006 163.627 62.7175 162.852 63.1905 162.024C64.0247 160.302 64.9419 158.267 65.6526 155.911C66.0542 154.75 66.3486 153.496 66.6902 152.21C66.8467 151.564 66.9726 150.898 67.1183 150.227C67.1885 149.891 67.2593 149.553 67.331 149.212C67.3872 148.868 67.4442 148.523 67.5017 148.175C67.9977 145.398 68.2834 142.448 68.4398 139.455C68.6075 136.459 68.561 133.412 68.3774 130.425C68.3009 128.928 68.1344 127.453 67.982 125.999C67.7888 124.544 67.5679 123.156 67.39 121.689C67.2105 120.246 66.9874 118.847 66.9564 117.468C66.9199 116.783 66.8844 116.109 66.8487 115.447C66.8087 114.787 66.8639 114.135 66.8679 113.5C66.8844 112.866 66.9004 112.246 66.9159 111.641C66.9571 111.038 67.0349 110.452 67.0903 109.883C67.1518 109.316 67.2115 108.765 67.2695 108.233C67.357 107.705 67.4609 107.198 67.5517 106.71C67.6191 106.335 67.6859 105.964 67.7511 105.599C67.7838 105.417 67.8161 105.235 67.8488 105.056C67.8935 104.879 67.938 104.703 67.9825 104.529C68.1609 103.833 68.3351 103.159 68.5031 102.505C68.662 101.85 68.9044 101.242 69.0913 100.64C69.2998 100.045 69.461 99.4547 69.6939 98.9147C70.5398 96.719 71.3847 94.8832 72.1652 93.346C72.4941 92.6979 72.5571 92.5904 72.3944 92.9359C72.2372 93.2848 71.8256 94.0709 71.3025 95.2657C70.2302 97.6271 68.5126 101.585 67.5517 106.71C66.7367 111.281 66.6083 116.869 67.6806 123.214C67.2528 119.226 67.1051 115.282 67.4637 111.699C67.8518 108.115 68.6498 104.938 69.5127 102.373C70.585 98.5424 72.2439 94.8655 74.071 91.2025C76.0718 87.1713 78.1972 83.1918 79.6129 78.9142C80.3584 76.7892 80.8842 74.6226 81.408 72.4585C81.9161 70.291 82.3712 68.1157 82.7608 65.9302C83.5472 61.5605 84.1475 57.1614 84.5191 52.7288C84.9055 48.2973 85.0564 43.8311 84.9267 39.3334C84.848 36.0756 84.4289 30.8703 83.2598 25.7893C82.7048 23.245 81.8993 20.7546 81.0332 18.5547C80.193 16.3399 79.1544 14.4742 78.3682 13.0502C78.3682 13.0502 78.5281 13.3255 78.829 13.8413C79.1274 14.3582 79.5835 15.107 80.052 16.1134C81.0432 18.0976 82.2392 21.0406 83.1584 24.6901C84.0855 28.3354 84.7885 32.6648 85.0642 37.3184C85.3741 41.9713 85.2986 46.9403 84.945 51.8786C84.5809 56.8177 83.9401 61.7282 83.1124 66.2913C82.281 70.8569 81.3216 75.077 80.168 78.6476C78.9979 82.2262 77.6417 85.0363 76.6988 86.9762C75.7461 88.9106 75.2006 90.0157 75.2006 90.0157C75.539 89.3871 75.8746 88.7617 76.2067 88.1453C76.2067 88.1453 76.4939 87.563 76.9987 86.5439C77.5032 85.5253 78.2092 84.0521 78.9754 82.2367C79.3425 81.3206 79.7704 80.3414 80.114 79.2546C80.2929 78.7168 80.4936 78.1643 80.6693 77.5979C80.8347 77.0303 81.0129 76.4515 81.1694 75.8599C81.8214 73.4968 82.4184 70.9579 82.94 68.4046C83.9908 63.2995 84.7006 58.1317 85.0802 54.2368C85.1666 53.2621 85.2456 52.3684 85.3156 51.5765C85.3683 50.7824 85.4155 50.0901 85.454 49.5205C85.5282 48.3804 85.5475 47.7264 85.5475 47.7264C85.6422 45.3615 85.668 42.9663 85.64 40.4961C85.64 40.4961 85.6602 40.9485 85.6625 41.6277C85.6625 42.3058 85.6602 43.2102 85.659 44.115C85.6377 45.0184 85.615 45.9217 85.5982 46.5994C85.5677 47.2755 85.5475 47.7264 85.5475 47.7264C85.3088 53.9138 84.785 59.9106 83.6407 66.5546C83.2656 68.6015 82.7835 70.779 82.2305 72.9435C81.6627 75.1096 81.0996 77.2602 80.3809 79.2718C79.2501 82.551 77.7286 85.323 76.2067 88.1453C76.2067 88.1453 75.5117 89.5245 74.8165 90.9029C74.1155 92.2769 73.4632 93.661 73.4632 93.661C73.2308 94.2105 72.9667 94.7933 72.726 95.3978C72.738 95.3781 72.7587 95.3416 72.769 95.3289C73.1061 94.7889 73.7939 93.61 74.7208 91.9332C75.6582 90.2596 76.8837 88.0978 78.2265 85.5164C78.5483 84.8591 78.882 84.18 79.2243 83.4817C79.5667 82.7827 79.8683 82.0286 80.2042 81.2738C80.5521 80.5258 80.8112 79.7065 81.1199 78.8942C81.433 78.0753 81.6874 77.2456 81.9476 76.4012C82.9682 73.0252 83.8309 69.418 84.5664 65.7525C86.0193 58.4216 86.8508 50.8446 86.9757 44.5236C87.0467 41.3646 86.9545 38.5237 86.7978 36.1986C86.6973 35.0354 86.6153 34.0012 86.5071 33.1202C86.3854 32.2397 86.2865 31.5113 86.2097 30.9566C85.6287 27.4285 84.6736 24.0946 83.3353 20.791C81.9848 17.4926 80.2627 14.2074 77.8479 10.9133C76.1967 8.74423 74.6985 6.93653 72.8607 5.70119C72.6118 5.67854 71.7026 5.09298 70.7477 4.61567C68.3774 3.21012 65.8276 2.17635 63.3585 1.54077C62.7454 1.3479 62.1294 1.24587 61.5274 1.12194C60.9254 1.00274 60.3341 0.881543 59.7518 0.833015C59.1713 0.76881 58.6035 0.714066 58.0532 0.670765C57.5024 0.653594 56.9686 0.659063 56.4545 0.671008C55.0218 0.632186 52.3158 0.260889 49.827 0.0961451C47.3452 -0.0730788 45.1217 -0.00489264 44.8423 0.191457C43.8472 1.02439 43.7252 1.13562 43.0015 1.20381C42.6391 1.23392 42.1296 1.25557 41.3029 1.39892C40.4727 1.53006 39.3126 1.73935 37.6867 2.2403C37.4881 2.29505 37.1889 2.4155 36.8286 2.57253C36.4704 2.73653 36.0568 2.95479 35.6178 3.17229C35.1797 3.39179 34.7183 3.61899 34.2695 3.82306C33.8234 4.03434 33.3988 4.24387 33.0147 4.38448C32.365 4.61716 31.7669 4.82147 31.2266 5.04744C30.6888 5.27987 30.1948 5.50234 29.7287 5.72034C28.7875 6.14017 27.9928 6.60978 27.1756 7.08535C26.3507 7.54748 25.5442 8.09297 24.6016 8.71338C23.6429 9.30865 22.6158 10.0913 21.3111 10.976C17.5817 13.8122 15.432 15.6881 13.4447 17.5625C12.9579 18.0416 12.4591 18.4987 11.9893 19.0096C11.5252 19.5263 11.0556 20.0636 10.5668 20.6429C10.0622 21.2081 9.62189 21.8884 9.11033 22.5979C8.86317 22.9595 8.59452 23.3269 8.34461 23.733C8.10445 24.1456 7.85454 24.5776 7.59164 25.0305C7.47218 25.255 6.89715 26.077 6.26138 27.2835C5.942 27.8844 5.5354 28.5372 5.19078 29.2708C4.84341 30.001 4.4783 30.7677 4.11743 31.5277C3.48591 33.0883 2.84615 34.6026 2.50678 35.7874C2.3186 36.3705 2.16315 36.8546 2.05394 37.1923C1.95373 37.5327 1.912 37.7305 1.912 37.7305C0.372319 42.5402 0.042189 46.6626 0.00120415 50.4278C-0.0202879 54.2095 0.250114 57.683 0.47653 61.5991C1.62036 65.9601 2.88389 70.9927 4.34035 76.0388C5.77532 81.0917 7.31274 86.1584 8.73871 90.6075C10.1629 95.0581 10.8692 98.2853 11.2933 101.379C11.6959 104.47 11.8841 107.442 11.7061 111.335C11.7191 112.449 11.6187 113.406 11.5889 114.255C11.5224 115.1 11.3962 115.82 11.26 116.445C11.1153 117.068 11.0551 118.328 11.0054 119.645C10.9751 120.311 10.9429 121.008 10.9119 121.688C10.8884 122.027 10.8647 122.362 10.8422 122.688C10.8309 123.015 10.8139 123.332 10.7892 123.633L10.4841 123.009C10.4181 123.819 10.2869 125.427 10.2209 126.235C10.1539 127.044 10.0525 126.837 9.95077 126.632C9.74684 126.219 9.54292 125.803 9.30925 127.227C9.20104 128.075 9.18705 128.94 9.15431 129.808C9.12732 130.677 9.10033 131.552 9.07334 132.431C9.02761 133.311 9.06759 134.2 9.11033 135.095C9.15206 135.991 9.1948 136.892 9.23703 137.798C9.32325 138.688 9.53967 139.57 9.70236 140.449C9.87854 141.326 10.0542 142.199 10.2299 143.069C10.4248 143.936 10.6947 144.791 10.9257 145.643C11.1773 146.493 11.3817 147.346 11.6756 148.177C11.8823 148.334 12.098 148.521 12.3599 148.957C12.7417 149.926 13.1228 150.893 13.5032 151.857C14.0442 152.328 14.3097 152.011 14.6695 152.319C15.1139 152.159 15.9378 152.987 16.693 153.667C17.4425 154.352 18.1515 154.886 18.3559 154.262C18.4004 154.031 17.9331 152.605 17.3948 150.936C17.1276 150.101 16.9582 149.163 16.7612 148.306C16.5911 147.441 16.3944 146.653 16.3956 146.011C16.4056 145.416 16.9762 146.655 17.4927 147.089C17.2393 146.331 17.1571 145.718 17.0934 145.274C17.0341 144.827 17.0264 144.54 17.0589 144.388C17.1231 144.085 17.348 144.326 17.6374 144.927C17.5027 144.192 17.3688 143.46 17.3688 143.46C17.5175 143.617 17.9658 144.089 17.9658 144.089C17.5714 142.144 17.4707 140.073 17.2803 138.013C17.2223 136.974 17.2353 135.918 17.2038 134.871L17.1661 133.298C17.1653 132.772 17.2021 132.242 17.2151 131.715C17.2516 130.66 17.2808 129.609 17.2988 128.565C17.348 127.518 17.4487 126.474 17.5012 125.442C17.5275 124.925 17.5544 124.41 17.5804 123.899L17.6119 123.134L17.6831 122.372C17.7731 121.359 17.8451 120.358 17.8958 119.37C17.9263 118.947 17.9516 118.453 17.9735 117.92C17.9955 117.317 18.0198 116.671 18.044 116.017C18.053 115.686 18.062 115.351 18.0705 115.02C18.0598 114.691 18.049 114.366 18.0388 114.047C18.0118 113.414 17.986 112.81 17.9635 112.273C17.9116 111.744 17.9218 110.896 17.9438 110.071C17.969 109.245 17.9358 108.458 17.9276 108.032C17.517 106.581 17.1513 106.841 16.752 106.263C16.6908 105.468 16.6508 104.545 16.5206 103.573C16.4119 102.593 16.2824 101.542 16.0965 100.478C15.7649 98.3314 15.2653 96.1168 14.7607 94.1254C13.7176 90.1549 12.5633 87.1524 12.062 87.5175C10.6288 82.7941 9.76309 82.0463 8.17168 77.2244C6.0787 70.8631 3.54689 62.7314 2.97985 54.5581C2.5795 50.1038 2.91038 45.8023 3.87027 41.6205C4.01697 40.8318 4.25188 40.0775 4.46655 39.3334C4.57351 38.9616 4.67947 38.5931 4.78418 38.2285C4.91314 37.8719 5.04159 37.5193 5.16754 37.1709C7.88728 29.5782 12.6055 23.3532 18.0705 18.5341C23.562 13.704 29.8092 10.1632 36.3882 7.74208C39.6827 6.5376 43.0735 5.61956 46.5337 5.03524C49.9919 4.45366 53.5254 4.20281 57.0598 4.41534C60.5942 4.60696 64.1207 5.37046 67.371 6.82877C68.9574 7.61243 70.5106 8.52026 71.8386 9.72125C73.1743 10.9673 74.4901 12.3457 75.5782 13.9446L76.0098 14.5352L76.3981 15.1591C76.655 15.5769 76.9209 15.99 77.1721 16.4138C77.6237 17.2925 78.1317 18.1449 78.5158 19.0676C79.3763 20.8666 80.0183 22.7828 80.6198 24.7127C81.7392 28.6064 82.4411 32.661 82.8013 36.7503C83.5122 44.9397 83.0494 53.2285 81.9286 61.2519C81.3598 65.265 80.6208 69.2216 79.6862 73.0682C78.7838 76.9467 77.5335 80.5494 75.8858 84.0185C74.2657 87.4883 72.4129 90.8429 70.8417 94.3016C69.2575 97.7493 67.9685 101.309 67.1726 104.906C66.3968 108.509 66.1517 112.105 66.1884 115.564C66.2889 117.285 66.3081 118.996 66.5645 120.638C66.6662 121.464 66.7677 122.282 66.8674 123.092C66.9711 123.859 67.0736 124.618 67.1753 125.369C67.9008 131.38 67.8715 136.978 67.4255 141.875C66.9909 146.777 66.1617 150.992 65.2025 154.362C64.2504 157.741 63.1528 160.248 62.3656 161.957C62.3656 161.957 61.9737 162.986 61.5816 164.015C61.1198 165.007 60.6572 166 60.6572 166Z" fill="#63676A"/>
<path d="M75 68.9099C74.6994 67.8417 74.0613 66.1961 73.157 64.2748C72.6725 63.3352 72.1307 62.3202 71.5544 61.2605C70.969 60.2076 70.2663 59.1665 69.5934 58.0815C69.2637 57.5337 68.8826 57.0191 68.5082 56.4982C68.1333 55.9773 67.7591 55.4571 67.3874 54.9406C66.6363 53.9133 65.8188 52.9643 65.0804 52.0212C64.3078 51.1082 63.5405 50.2643 62.8578 49.4695C62.1452 48.7 61.4978 48.0001 60.9397 47.3976C59.1316 45.6118 57.7523 44.2496 56.7159 43.2262C56.2793 42.7908 56.5881 43.054 57.3819 43.8144C58.1833 44.5668 59.4625 45.8262 60.9397 47.3976C61.6002 48.098 62.3476 48.8338 63.1147 49.6768C63.4941 50.1016 63.8887 50.5434 64.2997 51.0038C64.5055 51.2332 64.7148 51.467 64.9283 51.7058C65.1315 51.9535 65.3383 52.2056 65.5486 52.4633C63.6819 49.699 61.677 47.129 60.1771 45.3297C59.5583 44.7449 58.926 44.1685 58.2813 43.5983C57.6393 43.0247 56.9929 42.447 56.341 41.8648C54.9033 40.5895 53.4678 39.3429 52.0977 38.0497C51.3948 37.4198 50.7661 36.7274 50.0992 36.0726C49.7769 35.7355 49.4824 35.3762 49.1732 35.0298C48.8762 34.6737 48.5421 34.3467 48.2826 33.9643C47.7421 33.2161 47.1532 32.502 46.7171 31.6913L46.0169 30.5062C45.8016 30.0935 45.5901 29.6783 45.3877 29.2601C44.5779 27.5869 43.8658 25.8627 43.3724 24.0907C43.021 22.8218 42.5071 20.714 42.7897 18.784C42.9383 17.8335 43.2875 16.9664 43.812 16.3651C44.3247 15.7533 44.9595 15.3745 45.4778 15.1569C45.4778 15.1569 45.3722 15.1986 45.2036 15.3099C45.1175 15.3622 45.0101 15.4277 44.8842 15.5039C44.7702 15.5916 44.6391 15.6921 44.4923 15.8055C43.9367 16.2796 43.2764 17.1036 43.0195 18.421C42.7475 19.7275 42.9015 21.4463 43.3831 23.2432C43.8609 25.0458 44.6339 26.9383 45.5385 28.7736C45.7658 29.2322 45.9979 29.6893 46.24 30.1403C46.4779 30.5944 46.7526 30.9976 47.0041 31.4259C47.479 32.2915 48.1131 33.0429 48.6699 33.8063C48.9513 34.1863 49.2867 34.5199 49.5831 34.8686C49.8936 35.2074 50.1693 35.5601 50.4887 35.8661C51.1201 36.4832 51.6858 37.0906 52.2641 37.6093C53.3977 38.6642 54.3766 39.5218 55.0669 40.1194C55.757 40.7184 56.1515 41.0609 56.1515 41.0609C55.9372 40.8456 55.7242 40.6307 55.5139 40.4185C55.5139 40.4185 54.7054 39.6822 53.4922 38.5777C52.9127 38.0085 52.1856 37.3809 51.5009 36.6451C51.1507 36.2831 50.7891 35.9095 50.4213 35.529C50.0817 35.1313 49.7367 34.7272 49.3923 34.3228C49.032 33.9298 48.7338 33.4965 48.4325 33.0771C48.1427 32.6508 47.8043 32.2637 47.5721 31.8334C47.0858 30.9833 46.6063 30.229 46.2605 29.4868C45.5447 28.0455 45.1473 27.0632 45.1473 27.0632C44.7581 26.186 44.4133 25.2819 44.1489 24.3388C44.1489 24.3388 44.3565 25.0253 44.6122 25.7059C44.8598 26.388 45.1473 27.0632 45.1473 27.0632C45.6607 28.2044 46.2459 29.3283 46.9061 30.4008C47.2428 30.916 47.5827 31.437 47.929 31.9682C48.3251 32.4692 48.7284 32.9808 49.1433 33.5062C49.6745 34.1451 50.235 34.8455 50.8273 35.5317C51.4538 36.1953 52.041 36.8895 52.6908 37.4654C53.6998 38.44 54.5706 39.4363 55.5139 40.4185L57.4737 42.1728C57.681 42.3251 57.8997 42.4936 58.1176 42.673C58.1122 42.6641 58.1016 42.6486 58.0994 42.641C57.838 42.1117 56.6004 40.7729 54.9255 39.0191C53.2592 37.2611 51.1383 35.1007 49.5113 32.7336C49.1337 32.1272 48.6793 31.5624 48.3829 30.9293C48.058 30.3002 47.7164 29.746 47.4146 29.0634C46.8064 27.7574 46.2832 26.4984 45.8806 25.3651C45.0545 23.0882 44.7857 21.3746 44.684 20.6836C44.5007 19.5533 44.3871 18.6002 44.5406 17.7522C44.6236 17.3308 44.7749 16.9228 45.0819 16.5467C45.3838 16.1707 45.8354 15.8277 46.4132 15.5721C46.7966 15.3972 47.2105 15.3272 47.5935 15.2594C47.7905 15.2306 47.9786 15.1986 48.1588 15.1535C48.355 15.118 48.5453 15.0702 48.7272 15.0007C48.7857 14.8802 49.1539 14.7365 49.5224 14.6249C50.4981 14.4975 51.4681 14.5864 52.2317 14.7853C52.4198 14.8385 52.6116 14.878 52.7673 14.9457L53.0127 15.0258C53.0806 15.0586 53.1479 15.0889 53.2163 15.1158C53.4927 15.2178 53.7048 15.3378 53.9634 15.4351C54.034 15.4888 54.1058 15.5751 54.1624 15.6847C54.1974 15.8121 54.2559 15.9363 54.2475 16.0975C54.2737 16.3979 54.1569 16.72 54.0394 17.0428C53.7865 17.7002 53.3854 18.2865 53.5507 18.3833C54.1387 18.7441 54.2093 18.8291 54.1068 19.0484C53.9834 19.284 53.7265 19.6538 53.3854 20.7955C53.3037 21.0587 53.5038 22.1326 53.2452 22.7053C52.7631 23.637 52.5289 24.2757 52.3213 24.9785C52.2162 25.3235 52.1162 25.7099 51.9778 26.1037C51.8287 26.4957 51.6863 26.9307 51.4165 27.4804C50.6788 29.1706 49.9632 30.0947 49.3452 30.9932C48.7116 31.8901 48.1326 32.7612 47.5091 34.379C47.4262 34.5712 46.7341 35.8245 46.0603 37.0334C45.362 38.2296 44.6902 39.3806 44.6902 39.3806C43.442 41.0387 42.5066 42.4399 41.6005 43.7215C40.6718 44.9854 39.7245 46.096 38.3995 47.114C36.6469 50.4964 32.8202 53.8176 30.2834 56.8735C29.0375 58.4297 27.9907 59.388 26.9361 60.2487C25.8827 61.1112 24.8181 61.8754 23.4214 62.9369C22.6777 63.5951 22.2051 64.1693 21.6882 64.4714C21.1798 64.7824 20.52 66.0924 19.7571 66.7276L19.6981 66.3218C19.4444 66.5344 18.9399 66.9575 18.6869 67.1697C18.4327 67.3807 18.4149 67.2441 18.3954 67.1086C18.3581 66.8363 18.3187 66.5655 17.7959 66.8508C16.7052 67.6929 15.5809 68.529 14.4693 69.4208C14.0141 69.9639 13.5627 70.5048 13.1133 71.0425C12.667 71.5843 12.2027 72.092 11.7582 72.6228C11.7982 72.7884 11.8278 72.9616 11.7627 73.1804L11 74.1676C11.0289 74.5786 11.3238 74.7974 11.3416 75.0729C11.9525 75.7782 11.2165 77.6152 12.0764 77.997C12.3622 78.0773 14.2555 76.5443 15.3776 76.1557C15.6602 76.0914 15.4131 76.7055 15.4388 77.1197C16.529 76.1757 16.8321 76.3856 16.5823 77.0019C16.8587 76.7986 17.1339 76.5956 17.1339 76.5956C17.1428 76.7333 17.1695 77.1475 17.1695 77.1475C18.6881 76.0869 20.2905 74.9583 21.8563 73.7888C23.3807 72.5841 24.8107 71.2901 25.9389 69.884C26.4303 69.2919 27.1353 68.197 27.6017 67.4696C27.8355 67.1074 28.6218 66.5633 28.8778 66.3361C29.0681 65.6986 28.7499 65.5199 28.6791 65.1094C29.6827 64.2526 31.2477 62.8716 32.4381 61.6198C33.5999 60.3448 34.3888 59.2086 33.8852 58.8873C35.3175 57.3373 35.1675 56.6554 36.5252 54.9411C36.9739 54.3723 37.4533 53.7659 37.954 53.1314C38.4474 52.4904 38.9623 51.8219 39.4912 51.1351C40.5604 49.7707 41.66 48.3156 42.7463 46.8673C43.9098 45.2654 45.0402 43.7326 46.1988 42.1989C46.6147 41.6141 47.0189 41.0461 47.404 40.5052C49.4881 37.5736 51.4143 34.8206 53.198 32.0745C53.4209 31.7312 53.6435 31.3896 53.8649 31.0493C54.0784 30.6972 54.291 30.3468 54.5035 29.9969C54.9344 29.3212 55.336 28.5602 55.7336 27.8069C56.4533 26.3368 57.0842 24.8597 57.6033 23.2831C58.1092 21.7073 58.537 20.0597 58.5676 18.1766C58.572 17.2333 58.4832 16.2365 58.0966 15.165C57.6956 14.0783 56.9897 13.0949 56.0446 12.3985C55.5781 12.0441 55.0462 11.7676 54.5217 11.5634C54 11.3645 53.4883 11.228 52.9855 11.1479C51.9822 10.9857 51.0083 10.9626 50.0849 11.0508C49.6115 11.0725 49.1695 11.1597 48.7077 11.2159C48.2562 11.3002 47.8206 11.3778 47.3571 11.4862C46.4211 11.7028 45.461 12.033 44.5283 12.5318C43.5919 13.0355 42.6868 13.742 42.0043 14.6476C41.3157 15.549 40.8818 16.615 40.6856 17.6569C40.3077 19.7603 40.6821 21.7078 41.1817 23.5069C41.7035 25.3112 42.4249 26.9979 43.2123 28.6248C43.6077 29.4373 44.0243 30.2329 44.455 31.0153C44.8948 31.7967 45.4126 32.568 45.8838 33.3401C47.9689 36.326 50.5645 38.7266 53.0238 40.9599C55.4979 43.1895 57.8814 45.2819 59.9799 47.3999C64.1992 51.6164 67.3027 55.8753 69.4661 59.4545C71.6541 63.0215 72.9563 65.8802 73.6926 67.3829L75 68.9099Z" fill="#63676A"/>
<path d="M164.368 41.8V36.1H183.634V41.8H177.022V76H170.98V41.8H164.368ZM194.335 76H188.293V36.1H194.335V52.915H201.517V36.1H207.559V76H201.517V58.615H194.335V76ZM223.354 76.57C217.54 76.57 213.664 72.694 213.664 66.937V45.163C213.664 39.406 217.54 35.53 223.354 35.53C229.168 35.53 233.044 39.406 233.044 45.163V66.937C233.044 72.694 229.168 76.57 223.354 76.57ZM223.354 70.87C225.577 70.87 227.002 69.445 227.002 66.937V45.163C227.002 42.655 225.577 41.23 223.354 41.23C221.131 41.23 219.706 42.655 219.706 45.163V66.937C219.706 69.445 221.131 70.87 223.354 70.87ZM257.98 36.1H266.644V76H260.602V48.64L254.959 76H250.741L245.098 48.64V76H239.17V36.1H247.72L252.964 61.579L257.98 36.1ZM273.237 76V36.1H282.699C288.456 36.1 292.161 39.862 292.161 45.619V50.293C292.161 56.05 288.456 59.812 282.699 59.812H279.279V76H273.237ZM279.279 54.112H282.414C284.751 54.112 286.119 52.744 286.119 50.407V45.505C286.119 43.168 284.751 41.8 282.414 41.8H279.279V54.112ZM305.607 76.57C299.85 76.57 295.86 72.466 295.86 66.766V65.341L301.674 64.714V66.196C301.674 69.103 303.156 70.87 305.55 70.87C307.944 70.87 309.426 69.388 309.426 67.051C309.426 64.543 308.4 62.719 303.897 58.444C297.912 52.801 296.202 49.723 296.202 45.334C296.202 39.406 299.622 35.53 305.379 35.53C311.136 35.53 314.556 39.406 314.556 45.391V46.417L308.742 47.044V45.904C308.742 42.826 307.545 41.23 305.436 41.23C303.327 41.23 302.13 42.541 302.13 45.049C302.13 47.557 303.384 49.381 307.659 53.656C313.473 59.47 315.354 62.377 315.354 66.766C315.354 72.466 311.364 76.57 305.607 76.57ZM329.672 76.57C323.858 76.57 319.982 72.694 319.982 66.937V45.163C319.982 39.406 323.858 35.53 329.672 35.53C335.486 35.53 339.362 39.406 339.362 45.163V66.937C339.362 72.694 335.486 76.57 329.672 76.57ZM329.672 70.87C331.895 70.87 333.32 69.445 333.32 66.937V45.163C333.32 42.655 331.895 41.23 329.672 41.23C327.449 41.23 326.024 42.655 326.024 45.163V66.937C326.024 69.445 327.449 70.87 329.672 70.87ZM345.489 76V36.1H352.158L359.853 62.89V36.1H365.781V76H359.397L351.417 50.464V76H345.489ZM370.778 59.014V53.086H384.458V59.014H370.778ZM408.273 36.1H416.937V76H410.895V48.64L405.252 76H401.034L395.391 48.64V76H389.463V36.1H398.013L403.257 61.579L408.273 36.1ZM436.754 76L435.443 67.165H428.945L427.634 76H421.592L428.204 36.1H436.298L442.91 76H436.754ZM429.743 61.351H434.645L432.194 44.65L429.743 61.351ZM455.956 76.57C450.199 76.57 446.209 72.466 446.209 66.766V65.341L452.023 64.714V66.196C452.023 69.103 453.505 70.87 455.899 70.87C458.293 70.87 459.775 69.388 459.775 67.051C459.775 64.543 458.749 62.719 454.246 58.444C448.261 52.801 446.551 49.723 446.551 45.334C446.551 39.406 449.971 35.53 455.728 35.53C461.485 35.53 464.905 39.406 464.905 45.391V46.417L459.091 47.044V45.904C459.091 42.826 457.894 41.23 455.785 41.23C453.676 41.23 452.479 42.541 452.479 45.049C452.479 47.557 453.733 49.381 458.008 53.656C463.822 59.47 465.703 62.377 465.703 66.766C465.703 72.466 461.713 76.57 455.956 76.57ZM480.021 76.57C474.207 76.57 470.331 72.694 470.331 66.937V45.163C470.331 39.406 474.207 35.53 480.021 35.53C485.835 35.53 489.711 39.406 489.711 45.163V66.937C489.711 72.694 485.835 76.57 480.021 76.57ZM480.021 70.87C482.244 70.87 483.669 69.445 483.669 66.937V45.163C483.669 42.655 482.244 41.23 480.021 41.23C477.798 41.23 476.373 42.655 476.373 45.163V66.937C476.373 69.445 477.798 70.87 480.021 70.87ZM495.837 76V36.1H502.506L510.201 62.89V36.1H516.129V76H509.745L501.765 50.464V76H495.837Z" fill="#61A0B9"/>
<path d="M180.297 116.366C183.204 117.734 184.857 120.413 184.857 124.232V127.481C184.857 133.238 181.152 137 175.395 137H165.306V97.1H174.882C180.639 97.1 184.344 100.862 184.344 106.619V108.728C184.344 112.319 182.919 114.884 180.297 116.366ZM174.597 102.8H171.348V113.63H174.027C176.934 113.63 178.302 112.262 178.302 109.355V106.505C178.302 104.168 176.934 102.8 174.597 102.8ZM178.815 127.595V123.605C178.815 120.698 177.447 119.33 174.54 119.33H171.348V131.3H175.11C177.447 131.3 178.815 129.932 178.815 127.595ZM210.191 137H203.921L199.532 120.527H196.397V137H190.355V97.1H199.817C205.574 97.1 209.279 100.862 209.279 106.619V111.008C209.279 114.713 207.74 117.563 205.118 119.159L210.191 137ZM196.397 102.8V114.827H199.532C201.869 114.827 203.237 113.459 203.237 111.122V106.505C203.237 104.168 201.869 102.8 199.532 102.8H196.397ZM228.349 137L227.038 128.165H220.54L219.229 137H213.187L219.799 97.1H227.893L234.505 137H228.349ZM221.338 122.351H226.24L223.789 105.65L221.338 122.351ZM239.172 137V97.1H245.214V137H239.172ZM251.808 137V97.1H258.477L266.172 123.89V97.1H272.1V137H265.716L257.736 111.464V137H251.808ZM299.054 137.57C293.411 137.57 289.592 133.694 289.592 128.108V105.992C289.592 100.406 293.411 96.53 299.054 96.53C304.697 96.53 308.516 100.406 308.516 105.992V110.666H302.588V105.992C302.588 103.655 301.163 102.23 299.111 102.23C297.059 102.23 295.634 103.655 295.634 105.992V128.108C295.634 130.445 297.059 131.87 299.111 131.87C301.163 131.87 302.588 130.445 302.588 128.108V122.408H308.516V128.108C308.516 133.694 304.697 137.57 299.054 137.57ZM327.264 137L325.953 128.165H319.455L318.144 137H312.102L318.714 97.1H326.808L333.42 137H327.264ZM320.253 122.351H325.155L322.704 105.65L320.253 122.351ZM338.087 137V97.1H344.756L352.451 123.89V97.1H358.379V137H351.995L344.015 111.464V137H338.087ZM373.922 137.57C368.279 137.57 364.46 133.694 364.46 128.108V105.992C364.46 100.406 368.279 96.53 373.922 96.53C379.565 96.53 383.384 100.406 383.384 105.992V110.666H377.456V105.992C377.456 103.655 376.031 102.23 373.979 102.23C371.927 102.23 370.502 103.655 370.502 105.992V128.108C370.502 130.445 371.927 131.87 373.979 131.87C376.031 131.87 377.456 130.445 377.456 128.108V122.408H383.384V128.108C383.384 133.694 379.565 137.57 373.922 137.57ZM388.909 137V97.1H406.066V102.8H394.951V113.915H403.786V119.615H394.951V131.3H406.066V137H388.909ZM430.955 137H424.685L420.296 120.527H417.161V137H411.119V97.1H420.581C426.338 97.1 430.043 100.862 430.043 106.619V111.008C430.043 114.713 428.504 117.563 425.882 119.159L430.955 137ZM417.161 102.8V114.827H420.296C422.633 114.827 424.001 113.459 424.001 111.122V106.505C424.001 104.168 422.633 102.8 420.296 102.8H417.161ZM447.3 137V97.1H464.172V102.8H453.342V114.485H461.892V120.185H453.342V137H447.3ZM478.019 137.57C472.205 137.57 468.329 133.694 468.329 127.937V106.163C468.329 100.406 472.205 96.53 478.019 96.53C483.833 96.53 487.709 100.406 487.709 106.163V127.937C487.709 133.694 483.833 137.57 478.019 137.57ZM478.019 131.87C480.242 131.87 481.667 130.445 481.667 127.937V106.163C481.667 103.655 480.242 102.23 478.019 102.23C475.796 102.23 474.371 103.655 474.371 106.163V127.937C474.371 130.445 475.796 131.87 478.019 131.87ZM503.012 137.57C497.483 137.57 493.607 133.808 493.607 128.222V97.1H499.649V128.222C499.649 130.559 501.074 131.87 503.012 131.87C504.95 131.87 506.375 130.559 506.375 128.222V97.1H512.303V128.222C512.303 133.808 508.541 137.57 503.012 137.57ZM518.661 137V97.1H525.33L533.025 123.89V97.1H538.953V137H532.569L524.589 111.464V137H518.661ZM545.547 137V97.1H555.009C560.766 97.1 564.471 100.862 564.471 106.619V127.481C564.471 133.238 560.766 137 555.009 137H545.547ZM551.589 131.3H554.724C557.061 131.3 558.429 129.932 558.429 127.595V106.505C558.429 104.168 557.061 102.8 554.724 102.8H551.589V131.3ZM583.709 137L582.398 128.165H575.9L574.589 137H568.547L575.159 97.1H583.253L589.865 137H583.709ZM576.698 122.351H581.6L579.149 105.65L576.698 122.351ZM590.2 102.8V97.1H609.466V102.8H602.854V137H596.812V102.8H590.2ZM614.125 137V97.1H620.167V137H614.125ZM635.938 137.57C630.124 137.57 626.248 133.694 626.248 127.937V106.163C626.248 100.406 630.124 96.53 635.938 96.53C641.752 96.53 645.628 100.406 645.628 106.163V127.937C645.628 133.694 641.752 137.57 635.938 137.57ZM635.938 131.87C638.161 131.87 639.586 130.445 639.586 127.937V106.163C639.586 103.655 638.161 102.23 635.938 102.23C633.715 102.23 632.29 103.655 632.29 106.163V127.937C632.29 130.445 633.715 131.87 635.938 131.87ZM651.754 137V97.1H658.423L666.118 123.89V97.1H672.046V137H665.662L657.682 111.464V137H651.754Z" fill="#63676A"/>
</svg>
